<svg xmlns="http://www.w3.org/2000/svg" width="227.455" height="107.469" viewBox="0 0 227.455 107.469">
    <g id="Grupo_12" data-name="Grupo 12" transform="translate(0)">
      <path id="Trazado_1" data-name="Trazado 1" d="M925.649,181.706H914.585q-7.249,0-9.842-1.059t-2.6-3.331V81.805q0-3.48,9.387-5.524A94.177,94.177,0,0,1,931.6,74.237q10.68,0,15.26,2.724t5.341,5.753l10.379,39.961h1.373l9.766-38.146q1.069-4.086,10-7.189a59.414,59.414,0,0,1,19.608-3.1q10.682,0,15.8,1.665t5.112,4.239v97.175q0,1.971-8.7,3.18a157.129,157.129,0,0,1-21.213,1.21q-12.517,0-12.513-4.39,0-11.954,2.594-42.533h-1.374L975.1,174.288q-.457,2.273-3.739,3.331a34.173,34.173,0,0,1-9.843,1.059q-6.565,0-8.014-.908a4.86,4.86,0,0,1-1.908-3.482l-8.24-39.506h-1.374q2.747,31.183,2.747,42.533Q944.726,181.255,925.649,181.706Z" transform="translate(-902.147 -74.237)" fill="#1a91c6"/>
      <path id="Trazado_2" data-name="Trazado 2" d="M1001.184,181.706q-7.324,0-9.614-1.059a6.023,6.023,0,0,1-3.2-3.632L954.641,84.68q0-2.872,10.91-6.66A66.914,66.914,0,0,1,987.6,74.237q14.343,0,15.26,8.931l5.191,47.982h2.136l4.272-47.982q.761-8.931,20.6-8.931,7.626,0,10.224,2.044a7.439,7.439,0,0,1,2.9,5.373l5.035,49.5h2.136l3.967-47.982q.461-4.388,10.455-6.66a89.329,89.329,0,0,1,19.84-2.271q9.843,0,13.429,2.875t3.586,6.056l-32.657,93.846q-1.682,4.692-22.587,4.692-6.259,0-8.393-1.059a5.584,5.584,0,0,1-2.9-3.632l-7.935-26.339h-1.833l-8.089,26.339Q1020.873,181.706,1001.184,181.706Z" transform="translate(-879.183 -74.237)" fill="#1ac13d"/>
    </g>
  </svg>  